<mxfile host="65bd71144e">
    <diagram id="wPQDcEUORbiUfu1othtV" name="Page-1">
        <mxGraphModel dx="807" dy="1166" grid="1" gridSize="10" guides="1" tooltips="1" connect="1" arrows="1" fold="1" page="1" pageScale="1" pageWidth="850" pageHeight="1100" math="0" shadow="0">
            <root>
                <mxCell id="0"/>
                <mxCell id="1" parent="0"/>
                <mxCell id="36" value="" style="rounded=0;whiteSpace=wrap;html=1;" parent="1" vertex="1">
                    <mxGeometry x="60" y="70" width="280" height="390" as="geometry"/>
                </mxCell>
                <mxCell id="18" value="ERDs" style="shape=table;startSize=30;container=1;collapsible=0;childLayout=tableLayout;fontSize=16;strokeColor=#000000;fontColor=#000000;" parent="1" vertex="1">
                    <mxGeometry x="60" y="70" width="280" height="390" as="geometry"/>
                </mxCell>
                <mxCell id="19" value="" style="shape=tableRow;horizontal=0;startSize=0;swimlaneHead=0;swimlaneBody=0;strokeColor=#000000;top=0;left=0;bottom=0;right=0;collapsible=0;dropTarget=0;fillColor=none;points=[[0,0.5],[1,0.5]];portConstraint=eastwest;fontSize=16;fontColor=#000000;" parent="18" vertex="1">
                    <mxGeometry y="30" width="280" height="90" as="geometry"/>
                </mxCell>
                <mxCell id="20" value="Name&lt;div&gt;&lt;i&gt;&lt;font style=&quot;font-size: 15px;&quot;&gt;string&lt;/font&gt;&lt;/i&gt;&lt;/div&gt;" style="shape=partialRectangle;html=1;whiteSpace=wrap;connectable=0;strokeColor=#000000;overflow=hidden;fillColor=none;top=0;left=0;bottom=0;right=0;pointerEvents=1;fontSize=16;fontColor=#000000;" parent="19" vertex="1">
                    <mxGeometry width="90" height="90" as="geometry">
                        <mxRectangle width="90" height="90" as="alternateBounds"/>
                    </mxGeometry>
                </mxCell>
                <mxCell id="21" value="&lt;font style=&quot;&quot;&gt;Memory Address&lt;/font&gt;&lt;div&gt;&lt;span style=&quot;font-size: 14px;&quot;&gt;&lt;i&gt;string&lt;/i&gt;&lt;/span&gt;&lt;/div&gt;" style="shape=partialRectangle;html=1;whiteSpace=wrap;connectable=0;strokeColor=#000000;overflow=hidden;fillColor=none;top=0;left=0;bottom=0;right=0;pointerEvents=1;fontSize=16;fontColor=#000000;" parent="19" vertex="1">
                    <mxGeometry x="90" width="97" height="90" as="geometry">
                        <mxRectangle width="97" height="90" as="alternateBounds"/>
                    </mxGeometry>
                </mxCell>
                <mxCell id="22" value="Type&lt;div&gt;&lt;i&gt;&lt;font style=&quot;font-size: 15px;&quot;&gt;string&lt;/font&gt;&lt;/i&gt;&lt;/div&gt;" style="shape=partialRectangle;html=1;whiteSpace=wrap;connectable=0;strokeColor=#000000;overflow=hidden;fillColor=none;top=0;left=0;bottom=0;right=0;pointerEvents=1;fontSize=16;fontColor=#000000;" parent="19" vertex="1">
                    <mxGeometry x="187" width="93" height="90" as="geometry">
                        <mxRectangle width="93" height="90" as="alternateBounds"/>
                    </mxGeometry>
                </mxCell>
                <mxCell id="23" style="shape=tableRow;horizontal=0;startSize=0;swimlaneHead=0;swimlaneBody=0;strokeColor=#000000;top=0;left=0;bottom=0;right=0;collapsible=0;dropTarget=0;fillColor=none;points=[[0,0.5],[1,0.5]];portConstraint=eastwest;fontSize=16;fontColor=#000000;" parent="18" vertex="1">
                    <mxGeometry y="120" width="280" height="90" as="geometry"/>
                </mxCell>
                <mxCell id="24" value="Erd_Blah" style="shape=partialRectangle;html=1;whiteSpace=wrap;connectable=0;strokeColor=#000000;overflow=hidden;fillColor=none;top=0;left=0;bottom=0;right=0;pointerEvents=1;fontSize=16;fontColor=#000000;" parent="23" vertex="1">
                    <mxGeometry width="90" height="90" as="geometry">
                        <mxRectangle width="90" height="90" as="alternateBounds"/>
                    </mxGeometry>
                </mxCell>
                <mxCell id="25" value="0xF000" style="shape=partialRectangle;html=1;whiteSpace=wrap;connectable=0;strokeColor=#000000;overflow=hidden;fillColor=none;top=0;left=0;bottom=0;right=0;pointerEvents=1;fontSize=16;fontColor=#000000;" parent="23" vertex="1">
                    <mxGeometry x="90" width="97" height="90" as="geometry">
                        <mxRectangle width="97" height="90" as="alternateBounds"/>
                    </mxGeometry>
                </mxCell>
                <mxCell id="26" value="Blah_t" style="shape=partialRectangle;html=1;whiteSpace=wrap;connectable=0;strokeColor=#000000;overflow=hidden;fillColor=none;top=0;left=0;bottom=0;right=0;pointerEvents=1;fontSize=16;fontColor=#000000;" parent="23" vertex="1">
                    <mxGeometry x="187" width="93" height="90" as="geometry">
                        <mxRectangle width="93" height="90" as="alternateBounds"/>
                    </mxGeometry>
                </mxCell>
                <mxCell id="27" style="shape=tableRow;horizontal=0;startSize=0;swimlaneHead=0;swimlaneBody=0;strokeColor=#000000;top=0;left=0;bottom=0;right=0;collapsible=0;dropTarget=0;fillColor=none;points=[[0,0.5],[1,0.5]];portConstraint=eastwest;fontSize=16;fontColor=#000000;" parent="18" vertex="1">
                    <mxGeometry y="210" width="280" height="90" as="geometry"/>
                </mxCell>
                <mxCell id="28" value="Erd_Foo" style="shape=partialRectangle;html=1;whiteSpace=wrap;connectable=0;strokeColor=#000000;overflow=hidden;fillColor=none;top=0;left=0;bottom=0;right=0;pointerEvents=1;fontSize=16;fontColor=#000000;" parent="27" vertex="1">
                    <mxGeometry width="90" height="90" as="geometry">
                        <mxRectangle width="90" height="90" as="alternateBounds"/>
                    </mxGeometry>
                </mxCell>
                <mxCell id="29" value="0xF001" style="shape=partialRectangle;html=1;whiteSpace=wrap;connectable=0;strokeColor=#000000;overflow=hidden;fillColor=none;top=0;left=0;bottom=0;right=0;pointerEvents=1;fontSize=16;fontColor=#000000;" parent="27" vertex="1">
                    <mxGeometry x="90" width="97" height="90" as="geometry">
                        <mxRectangle width="97" height="90" as="alternateBounds"/>
                    </mxGeometry>
                </mxCell>
                <mxCell id="30" value="Foo_t" style="shape=partialRectangle;html=1;whiteSpace=wrap;connectable=0;strokeColor=#000000;overflow=hidden;fillColor=none;top=0;left=0;bottom=0;right=0;pointerEvents=1;fontSize=16;fontColor=#000000;" parent="27" vertex="1">
                    <mxGeometry x="187" width="93" height="90" as="geometry">
                        <mxRectangle width="93" height="90" as="alternateBounds"/>
                    </mxGeometry>
                </mxCell>
                <mxCell id="31" style="shape=tableRow;horizontal=0;startSize=0;swimlaneHead=0;swimlaneBody=0;strokeColor=#000000;top=0;left=0;bottom=0;right=0;collapsible=0;dropTarget=0;fillColor=none;points=[[0,0.5],[1,0.5]];portConstraint=eastwest;fontSize=16;fontColor=#000000;" parent="18" vertex="1">
                    <mxGeometry y="300" width="280" height="90" as="geometry"/>
                </mxCell>
                <mxCell id="32" value="Erd_Bar" style="shape=partialRectangle;html=1;whiteSpace=wrap;connectable=0;strokeColor=#000000;overflow=hidden;fillColor=none;top=0;left=0;bottom=0;right=0;pointerEvents=1;fontSize=16;fontColor=#000000;" parent="31" vertex="1">
                    <mxGeometry width="90" height="90" as="geometry">
                        <mxRectangle width="90" height="90" as="alternateBounds"/>
                    </mxGeometry>
                </mxCell>
                <mxCell id="33" value="0xF002" style="shape=partialRectangle;html=1;whiteSpace=wrap;connectable=0;strokeColor=#000000;overflow=hidden;fillColor=none;top=0;left=0;bottom=0;right=0;pointerEvents=1;fontSize=16;fontColor=#000000;" parent="31" vertex="1">
                    <mxGeometry x="90" width="97" height="90" as="geometry">
                        <mxRectangle width="97" height="90" as="alternateBounds"/>
                    </mxGeometry>
                </mxCell>
                <mxCell id="34" value="Bar_t" style="shape=partialRectangle;html=1;whiteSpace=wrap;connectable=0;strokeColor=#000000;overflow=hidden;fillColor=none;top=0;left=0;bottom=0;right=0;pointerEvents=1;fontSize=16;fontColor=#000000;" parent="31" vertex="1">
                    <mxGeometry x="187" width="93" height="90" as="geometry">
                        <mxRectangle width="93" height="90" as="alternateBounds"/>
                    </mxGeometry>
                </mxCell>
                <mxCell id="16" value="" style="rounded=0;whiteSpace=wrap;html=1;rotation=-90;fillColor=none;strokeColor=#00CC00;strokeWidth=4;" parent="1" vertex="1">
                    <mxGeometry x="60" y="100" width="89" height="90" as="geometry"/>
                </mxCell>
            </root>
        </mxGraphModel>
    </diagram>
</mxfile>
